<mxfile host="app.diagrams.net" modified="2023-01-12T17:52:43.812Z" agent="5.0 (Windows NT 10.0; Win64; x64) AppleWebKit/537.36 (KHTML, like Gecko) Chrome/108.0.0.0 Safari/537.36" etag="rDXkX5YWVJjlpRn8Izj0" version="20.8.3" type="github">
  <diagram id="C5RBs43oDa-KdzZeNtuy" name="Page-1">
    <mxGraphModel dx="1335" dy="660" grid="1" gridSize="10" guides="1" tooltips="1" connect="1" arrows="1" fold="1" page="1" pageScale="1" pageWidth="827" pageHeight="1169" math="0" shadow="0">
      <root>
        <mxCell id="WIyWlLk6GJQsqaUBKTNV-0" />
        <mxCell id="WIyWlLk6GJQsqaUBKTNV-1" parent="WIyWlLk6GJQsqaUBKTNV-0" />
        <mxCell id="F2DI3MWtFgH3BTmF6-yR-1" value="&lt;b style=&quot;border-color: var(--border-color);&quot;&gt;A&lt;/b&gt;" style="rounded=1;whiteSpace=wrap;html=1;fontSize=12;glass=0;strokeWidth=1;shadow=0;fillColor=#f8cecc;strokeColor=#b85450;" vertex="1" parent="WIyWlLk6GJQsqaUBKTNV-1">
          <mxGeometry x="190" y="250" width="120" height="40" as="geometry" />
        </mxCell>
        <mxCell id="F2DI3MWtFgH3BTmF6-yR-4" value="B&lt;br&gt;9.10.3.300" style="ellipse;whiteSpace=wrap;html=1;aspect=fixed;fillColor=#fff2cc;strokeColor=#d6b656;" vertex="1" parent="WIyWlLk6GJQsqaUBKTNV-1">
          <mxGeometry x="400" y="56" width="60" height="60" as="geometry" />
        </mxCell>
        <mxCell id="F2DI3MWtFgH3BTmF6-yR-5" value="A" style="ellipse;whiteSpace=wrap;html=1;aspect=fixed;fillColor=#fff2cc;strokeColor=#d6b656;" vertex="1" parent="WIyWlLk6GJQsqaUBKTNV-1">
          <mxGeometry x="210" y="80" width="60" height="60" as="geometry" />
        </mxCell>
        <mxCell id="F2DI3MWtFgH3BTmF6-yR-6" value="Google&lt;br&gt;8.8.8.8" style="ellipse;whiteSpace=wrap;html=1;aspect=fixed;fillColor=#f5f5f5;fontColor=#333333;strokeColor=#666666;" vertex="1" parent="WIyWlLk6GJQsqaUBKTNV-1">
          <mxGeometry x="400" y="125" width="60" height="60" as="geometry" />
        </mxCell>
        <mxCell id="F2DI3MWtFgH3BTmF6-yR-7" value="&amp;nbsp;IP 9.10.3.1" style="text;html=1;strokeColor=none;fillColor=none;align=center;verticalAlign=middle;whiteSpace=wrap;rounded=0;" vertex="1" parent="WIyWlLk6GJQsqaUBKTNV-1">
          <mxGeometry x="220" y="300" width="60" height="30" as="geometry" />
        </mxCell>
        <mxCell id="F2DI3MWtFgH3BTmF6-yR-8" value="&lt;b style=&quot;&quot;&gt;&lt;font color=&quot;#3d43e6&quot;&gt;ICMP Request&lt;/font&gt;&lt;/b&gt;" style="text;html=1;strokeColor=none;fillColor=none;align=center;verticalAlign=middle;whiteSpace=wrap;rounded=0;" vertex="1" parent="WIyWlLk6GJQsqaUBKTNV-1">
          <mxGeometry x="240" y="30" width="150" height="50" as="geometry" />
        </mxCell>
        <mxCell id="F2DI3MWtFgH3BTmF6-yR-12" value="&lt;b&gt;&lt;font color=&quot;#ff3333&quot;&gt;ICMP Replay&lt;br&gt;Src IP: 8.8.8.8&lt;/font&gt;&lt;/b&gt;" style="text;html=1;strokeColor=none;fillColor=none;align=center;verticalAlign=middle;whiteSpace=wrap;rounded=0;" vertex="1" parent="WIyWlLk6GJQsqaUBKTNV-1">
          <mxGeometry x="80" y="210" width="150" height="50" as="geometry" />
        </mxCell>
        <mxCell id="F2DI3MWtFgH3BTmF6-yR-13" value="" style="endArrow=classic;html=1;rounded=0;fontColor=#3d43e6;strokeColor=#2c22b9;" edge="1" parent="WIyWlLk6GJQsqaUBKTNV-1">
          <mxGeometry width="50" height="50" relative="1" as="geometry">
            <mxPoint x="313" y="70" as="sourcePoint" />
            <mxPoint x="403" y="70" as="targetPoint" />
            <Array as="points" />
          </mxGeometry>
        </mxCell>
        <mxCell id="F2DI3MWtFgH3BTmF6-yR-14" value="" style="endArrow=classic;html=1;rounded=0;fontColor=#3d43e6;strokeColor=#2c22b9;" edge="1" parent="WIyWlLk6GJQsqaUBKTNV-1">
          <mxGeometry width="50" height="50" relative="1" as="geometry">
            <mxPoint x="314" y="132" as="sourcePoint" />
            <mxPoint x="404" y="132" as="targetPoint" />
            <Array as="points" />
          </mxGeometry>
        </mxCell>
        <mxCell id="F2DI3MWtFgH3BTmF6-yR-15" value="&lt;b style=&quot;&quot;&gt;&lt;font color=&quot;#ff3333&quot;&gt;ICMP Replay&lt;br&gt;Src IP: 9.10.3.300&lt;/font&gt;&lt;/b&gt;" style="text;html=1;strokeColor=none;fillColor=none;align=left;verticalAlign=middle;whiteSpace=wrap;rounded=0;" vertex="1" parent="WIyWlLk6GJQsqaUBKTNV-1">
          <mxGeometry x="120" y="170" width="150" height="50" as="geometry" />
        </mxCell>
        <mxCell id="F2DI3MWtFgH3BTmF6-yR-16" value="" style="endArrow=classic;html=1;rounded=0;strokeColor=#f91a1a;fontColor=#FF3333;" edge="1" parent="WIyWlLk6GJQsqaUBKTNV-1">
          <mxGeometry width="50" height="50" relative="1" as="geometry">
            <mxPoint x="225" y="235" as="sourcePoint" />
            <mxPoint x="225" y="150" as="targetPoint" />
          </mxGeometry>
        </mxCell>
        <mxCell id="F2DI3MWtFgH3BTmF6-yR-17" value="" style="endArrow=classic;html=1;rounded=0;strokeColor=#161212;fontColor=#FF3333;" edge="1" parent="WIyWlLk6GJQsqaUBKTNV-1">
          <mxGeometry width="50" height="50" relative="1" as="geometry">
            <mxPoint x="373" y="104" as="sourcePoint" />
            <mxPoint x="283" y="104" as="targetPoint" />
          </mxGeometry>
        </mxCell>
        <mxCell id="F2DI3MWtFgH3BTmF6-yR-18" value="" style="endArrow=classic;html=1;rounded=0;strokeColor=#161212;fontColor=#FF3333;" edge="1" parent="WIyWlLk6GJQsqaUBKTNV-1">
          <mxGeometry width="50" height="50" relative="1" as="geometry">
            <mxPoint x="370" y="165" as="sourcePoint" />
            <mxPoint x="280" y="165" as="targetPoint" />
          </mxGeometry>
        </mxCell>
        <mxCell id="F2DI3MWtFgH3BTmF6-yR-19" value="&lt;b style=&quot;border-color: var(--border-color); text-align: left;&quot;&gt;&lt;font color=&quot;#222020&quot; style=&quot;border-color: var(--border-color);&quot;&gt;ICMP Replay&lt;/font&gt;&lt;/b&gt;" style="text;html=1;strokeColor=none;fillColor=none;align=center;verticalAlign=middle;whiteSpace=wrap;rounded=0;fontColor=#FF3333;" vertex="1" parent="WIyWlLk6GJQsqaUBKTNV-1">
          <mxGeometry x="300" y="170" width="90" height="30" as="geometry" />
        </mxCell>
      </root>
    </mxGraphModel>
  </diagram>
</mxfile>
